<?xml version="1.0" encoding="utf-8"?>
<!-- Generator: Adobe Illustrator 16.0.0, SVG Export Plug-In . SVG Version: 6.00 Build 0)  -->
<!DOCTYPE svg PUBLIC "-//W3C//DTD SVG 1.1//EN" "http://www.w3.org/Graphics/SVG/1.1/DTD/svg11.dtd">
<svg version="1.1" id="Layer_1" xmlns="http://www.w3.org/2000/svg" xmlns:xlink="http://www.w3.org/1999/xlink" x="0px" y="0px"
	 width="40px" height="23.699px" viewBox="0 0 40 23.699" enable-background="new 0 0 40 23.699" xml:space="preserve">
<path fill="#FFFFFF" d="M31.641,0c1.094,1.97,2.188,3.895,3.283,5.865c2.888,0.087,5.602-0.744,4.989,3.02
	c-1.4,0.044-1.663-0.131-2.845,0.613c3.414,4.989,2.057,7.79,2.013,14.092c-2.188,0.131-4.026,0.131-6.433,0c0-0.7,0-1.357,0-2.057
	c-8.403,0-16.849,0-25.252,0c0,0.7,0,1.357,0,2.057c-2.232,0.131-4.333,0.175-6.477-0.044c-0.087-6.302-1.4-9.059,2.013-14.048
	C1.794,8.709,1.488,8.928,0.088,8.884c-0.613-3.764,2.101-2.932,4.989-3.02L8.359,0H31.641L31.641,0z M7.528,7.353h24.945
	L30.81,1.007H9.191L7.528,7.353L7.528,7.353z M4.683,13.086c-2.451,0-2.451,3.72,0,3.72H8.14c2.451,0,2.451-3.72,0-3.72H4.683
	L4.683,13.086z M31.86,13.086c-2.451,0-2.451,3.72,0,3.72h3.458c2.451,0,2.451-3.72,0-3.72H31.86L31.86,13.086z M9.76,17.812
	c-0.875,0-1.532,0.438-1.532,0.963c0,0.525,0.7,0.963,1.532,0.963s1.532-0.438,1.532-0.963C11.291,18.25,10.591,17.812,9.76,17.812
	L9.76,17.812z M30.241,17.856c-0.875,0-1.532,0.438-1.532,0.963s0.7,0.963,1.532,0.963s1.532-0.438,1.532-0.963
	S31.116,17.856,30.241,17.856z"/>
</svg>
