<?xml version="1.0" encoding="utf-8"?>
<!-- Generator: Adobe Illustrator 16.0.0, SVG Export Plug-In . SVG Version: 6.00 Build 0)  -->
<!DOCTYPE svg PUBLIC "-//W3C//DTD SVG 1.1//EN" "http://www.w3.org/Graphics/SVG/1.1/DTD/svg11.dtd">
<svg version="1.1" id="Layer_1" xmlns="http://www.w3.org/2000/svg" xmlns:xlink="http://www.w3.org/1999/xlink" x="0px" y="0px"
	 width="40px" height="22.762px" viewBox="0 0 40 22.762" enable-background="new 0 0 40 22.762" xml:space="preserve">
<g>
	<path fill="#FFFFFF" d="M32.205,6.949c-1.068,0-2.093,0.223-2.984,0.579c-0.267-0.846-0.579-1.737-0.891-2.673
		c0-0.044-0.045-0.089-0.045-0.178c-0.267-0.846-0.578-1.737-0.802-2.494l2.495-0.846c0.668-0.089,1.291,0.356,1.381,0.979
		c0.134,0.668-0.313,1.292-0.98,1.426c-0.356,0.044-0.579,0.401-0.534,0.757c0.044,0.312,0.312,0.534,0.623,0.534
		c0.045,0,0.09,0,0.134,0c1.381-0.223,2.271-1.559,2.049-2.94c-0.133-0.668-0.489-1.247-1.024-1.648
		c-0.534-0.356-1.202-0.535-1.826-0.401l0,0c0,0,0,0-0.044,0h-0.045h-0.045l-3.251,1.114l0,0l0,0l0,0c0,0-0.045,0-0.045,0.044
		c0,0-0.045,0-0.045,0.044s-0.044,0.044-0.044,0.044l-0.045,0.045l-0.044,0.044l-0.045,0.044L26.102,1.47l-0.044,0.044
		c0,0,0,0.045-0.045,0.045v0.044v0.044v0.044v0.045v0.044v0.044v0.044c0.089,0.268,0.401,1.203,0.758,2.361H15.724L15.145,2.45
		h1.692c0.356,0,0.668-0.312,0.668-0.668s-0.312-0.668-0.668-0.668h-5.211c-0.356,0-0.668,0.312-0.668,0.668S11.27,2.45,11.626,2.45
		h2.138l0.712,2.361l-2.494,3.296C10.78,7.394,9.399,6.949,7.885,6.949C3.564,6.949,0,10.512,0,14.833s3.563,7.884,7.884,7.884
		c3.831,0,7.038-2.761,7.75-6.37l0.356,0.044c0.178,1.336,1.292,2.361,2.672,2.361c1.47,0,2.673-1.203,2.673-2.672
		c0-0.535-0.134-1.024-0.401-1.425l6.815-7.171c0.089,0.223,0.134,0.49,0.223,0.712c-2.227,1.381-3.741,3.875-3.741,6.682
		c0,4.365,3.563,7.884,7.884,7.884c4.365,0,7.884-3.563,7.884-7.884S36.526,6.949,32.205,6.949z M7.885,21.47
		c-3.653,0-6.592-2.94-6.592-6.592c0-3.653,2.939-6.592,6.592-6.592c1.203,0,2.316,0.312,3.296,0.891L7.35,14.254
		c-0.089,0.133-0.133,0.312-0.133,0.445c-0.045,0.356,0.223,0.668,0.579,0.713l6.548,0.802C13.719,19.198,11.092,21.47,7.885,21.47z
		 M14.477,14.833v0.044l-5.479-0.668l3.252-4.32C13.631,11.136,14.477,12.873,14.477,14.833z M13.052,8.864l1.916-2.539l2.316,7.483
		c-0.49,0.312-0.891,0.757-1.113,1.336L15.769,15.1c0-0.089,0-0.134,0-0.223C15.813,12.472,14.744,10.334,13.052,8.864z
		 M18.664,17.461c-0.757,0-1.381-0.624-1.381-1.381s0.624-1.381,1.381-1.381s1.381,0.624,1.381,1.381S19.421,17.461,18.664,17.461z
		 M20,13.764c-0.401-0.223-0.846-0.356-1.336-0.356c-0.044,0-0.089,0-0.133,0l-2.406-7.75h11.047
		c0.045,0.134,0.089,0.268,0.134,0.401L20,13.764z M32.205,21.47c-3.652,0-6.592-2.94-6.592-6.592c0-2.227,1.113-4.232,2.851-5.39
		c0.356,1.113,0.668,1.96,0.802,2.227c0.49,1.024,2.494,3.385,2.717,3.652c0.134,0.134,0.313,0.223,0.49,0.223
		c0.134,0,0.312-0.044,0.445-0.178c0.268-0.223,0.312-0.668,0.045-0.936c-0.579-0.668-2.183-2.583-2.495-3.296
		c-0.089-0.223-0.4-1.113-0.802-2.316c0.802-0.356,1.693-0.535,2.584-0.535c3.652,0,6.593,2.94,6.593,6.592
		C38.843,18.575,35.813,21.47,32.205,21.47z"/>
</g>
</svg>
