<?xml version="1.0" encoding="utf-8"?>
<!-- Generator: Adobe Illustrator 16.0.0, SVG Export Plug-In . SVG Version: 6.00 Build 0)  -->
<!DOCTYPE svg PUBLIC "-//W3C//DTD SVG 1.1//EN" "http://www.w3.org/Graphics/SVG/1.1/DTD/svg11.dtd">
<svg version="1.1" id="Layer_1" xmlns="http://www.w3.org/2000/svg" xmlns:xlink="http://www.w3.org/1999/xlink" x="0px" y="0px"
	 width="40px" height="49.057px" viewBox="0 0 40 49.057" enable-background="new 0 0 40 49.057" xml:space="preserve">
<path d="M33.725,33.578"/>
<g>
	<path fill="#FFFFFF" d="M38.04,7.255c-0.54-2.696-2.255-3.824-4.854-4.902C30.637,1.323,24.51,0.049,20,0
		C15.49,0.049,9.363,1.323,6.814,2.353C4.216,3.431,2.5,4.559,1.961,7.255L0,22.206v20.637h3.333v3.235c0,3.971,5.735,3.971,5.784,0
		v-3.235h10.637h0.049h11.079v3.235c0,3.971,5.784,3.971,5.784,0v-3.235H40V22.206L38.04,7.255z M11.765,3.774h8.039h8.431
		c1.618,0,1.618,2.402,0,2.451h-8.48h-7.99C10.147,6.226,10.147,3.774,11.765,3.774z M6.226,36.372c-1.52,0-2.745-1.225-2.745-2.794
		c0-1.52,1.226-2.745,2.745-2.745s2.794,1.226,2.794,2.745C9.02,35.147,7.745,36.372,6.226,36.372z M19.804,23.774H5.098
		c-1.422,0-1.716-1.029-1.618-2.059L5,10.833C5.197,9.51,5.637,8.676,7.402,8.627h12.353H32.55c1.716,0,2.156,0.882,2.401,2.206
		l1.52,10.883c0.147,1.029-0.146,2.059-1.617,2.059H19.804z M33.725,36.372c-1.52,0-2.745-1.225-2.745-2.794
		c0-1.52,1.226-2.745,2.745-2.745s2.795,1.226,2.795,2.745C36.52,35.147,35.295,36.372,33.725,36.372z"/>
	<path fill="#FFFFFF" d="M19.804,0C19.853,0,19.951,0,20,0s0.147,0,0.196,0H19.804z"/>
</g>
</svg>
