<?xml version="1.0" encoding="utf-8"?>
<!-- Generator: Adobe Illustrator 16.0.0, SVG Export Plug-In . SVG Version: 6.00 Build 0)  -->
<!DOCTYPE svg PUBLIC "-//W3C//DTD SVG 1.1//EN" "http://www.w3.org/Graphics/SVG/1.1/DTD/svg11.dtd">
<svg version="1.1" id="Layer_1" xmlns="http://www.w3.org/2000/svg" xmlns:xlink="http://www.w3.org/1999/xlink" x="0px" y="0px"
	 width="40px" height="45.638px" viewBox="0 0 40 45.638" enable-background="new 0 0 40 45.638" xml:space="preserve">
<path fill="#FFFFFF" d="M0.045,34.406v4.572h2.353v3.241c0,1.909,1.509,3.418,3.418,3.418c1.909,0,3.418-1.509,3.418-3.418v-3.241
	h21.576v3.241c0,1.909,1.509,3.418,3.418,3.418s3.419-1.509,3.419-3.418v-3.241H40V27.88l-5.283-3.196l-0.532-6.792
	c-0.178-2.131-1.998-3.862-4.174-3.862H10.033c-2.22,0-3.996,1.687-4.173,3.862l-0.533,6.792L0,27.925v5.017 M5.683,34.229
	c-1.554,0-2.841-1.287-2.841-2.841c0-1.599,1.288-2.842,2.841-2.842s2.841,1.287,2.841,2.842
	C8.524,32.985,7.281,34.229,5.683,34.229z M28.768,35.649H11.143v-6.615c0-0.71,0.577-1.287,1.288-1.287h15.05
	c0.71,0,1.287,0.577,1.287,1.287V35.649z M7.325,24.64l0.488-6.526c0.089-1.11,1.021-1.954,2.175-1.954h19.978
	c1.154,0,2.087,0.844,2.175,1.954l0.533,6.526H7.325z M34.274,34.229c-1.599,0-2.842-1.287-2.842-2.841
	c0-1.599,1.287-2.842,2.842-2.842c1.554,0,2.841,1.287,2.841,2.842C37.115,32.985,35.827,34.229,34.274,34.229z"/>
<path fill="#FFFFFF" d="M36.182,0c2.087,0,3.774,1.687,3.774,4.883v20.866l-3.463-2.131l-0.444-5.949
	c-0.311-3.063-2.886-5.461-6.038-5.461H10.033c-3.152,0-5.727,2.397-6.038,5.461l-0.444,5.949l-3.507,2.131V4.883
	C0.045,1.687,1.732,0,3.774,0H36.182z"/>
</svg>
