<?xml version="1.0" encoding="utf-8"?>
<!-- Generator: Adobe Illustrator 16.0.0, SVG Export Plug-In . SVG Version: 6.00 Build 0)  -->
<!DOCTYPE svg PUBLIC "-//W3C//DTD SVG 1.1//EN" "http://www.w3.org/Graphics/SVG/1.1/DTD/svg11.dtd">
<svg version="1.1" id="Capa_1" xmlns="http://www.w3.org/2000/svg" xmlns:xlink="http://www.w3.org/1999/xlink" x="0px" y="0px"
	 width="58px" height="58px" viewBox="0 0 58 58" enable-background="new 0 0 58 58" xml:space="preserve">
<g>
	<defs>
		<rect id="SVGID_1_" width="58" height="58"/>
	</defs>
	<clipPath id="SVGID_2_">
		<use xlink:href="#SVGID_1_"  overflow="visible"/>
	</clipPath>
	<path clip-path="url(#SVGID_2_)" d="M29,0C12.984,0,0,12.984,0,29c0,16.016,12.984,29,29,29c16.016,0,29-12.984,29-29
		C58,12.984,45.016,0,29,0z M29,10c1.105,0,2,0.895,2,2v15h13c1.105,0,2,0.895,2,2c0,1.104-0.895,2-2,2H29c-1.105,0-2-0.896-2-2V12
		C27,10.895,27.895,10,29,10"/>
</g>
</svg>
