<?xml version="1.0" encoding="utf-8"?>
<!-- Generator: Adobe Illustrator 16.0.0, SVG Export Plug-In . SVG Version: 6.00 Build 0)  -->
<!DOCTYPE svg PUBLIC "-//W3C//DTD SVG 1.1//EN" "http://www.w3.org/Graphics/SVG/1.1/DTD/svg11.dtd">
<svg version="1.1" id="Capa_1" xmlns="http://www.w3.org/2000/svg" xmlns:xlink="http://www.w3.org/1999/xlink" x="0px" y="0px"
	 width="87.721px" height="87.875px" viewBox="-7.2 -7.212 87.721 87.875" enable-background="new -7.2 -7.212 87.721 87.875"
	 xml:space="preserve">
<g>
	<g>
		<defs>
			<rect id="SVGID_1_" x="-7.199" y="-7.212" width="87.72" height="87.875"/>
		</defs>
		<clipPath id="SVGID_2_">
			<use xlink:href="#SVGID_1_"  overflow="visible"/>
		</clipPath>
		<path clip-path="url(#SVGID_2_)" fill="#FFFFFF" d="M36.684-7.212c6.773,0.189,13.559,0.172,20.314,0.617
			c8.52,0.562,15.488,4.109,19.888,11.756c2.038,3.545,3.148,7.44,3.244,11.507c0.234,10.054,0.403,20.114,0.389,30.17
			c-0.006,4.54-0.151,9.134-0.854,13.606c-1.853,11.791-10.427,19.368-22.197,19.84c-13.683,0.55-27.413,0.43-41.107,0.08
			C3.125,80.025-6.45,70.581-6.854,57.307c-0.422-13.799-0.527-27.642,0.076-41.428C-6.252,3.902,1.639-4.451,13.069-6.123
			c4.951-0.724,10.015-0.695,15.034-0.9c2.854-0.119,5.717-0.022,8.577-0.022C36.681-7.102,36.682-7.157,36.684-7.212
			 M36.098,73.094c6.741-0.181,13.199-0.304,19.653-0.55c3.369-0.128,6.622-0.904,9.486-2.787c4.808-3.16,6.873-7.961,6.956-13.415
			c0.2-12.965,0.259-25.94-0.007-38.904c-0.191-9.435-6.265-15.78-15.68-16.046C43.286,1.017,30.038,1.033,16.816,1.376
			C7.573,1.617,1.388,7.583,1.118,16.684C0.717,30.115,0.893,43.568,1.08,57.009c0.063,4.568,1.865,8.661,5.508,11.731
			c2.971,2.503,6.512,3.552,10.26,3.742C23.351,72.811,29.864,72.907,36.098,73.094"/>
	</g>
	<g>
		<defs>
			<rect id="SVGID_3_" x="-7.199" y="-7.212" width="87.72" height="87.875"/>
		</defs>
		<clipPath id="SVGID_4_">
			<use xlink:href="#SVGID_3_"  overflow="visible"/>
		</clipPath>
		<path clip-path="url(#SVGID_4_)" fill="#FFFFFF" d="M36.524,59.473c-12.422,0.021-22.482-10.051-22.495-22.525
			c-0.011-12.563,9.983-22.58,22.566-22.617C49.091,14.295,59.2,24.419,59.176,36.944C59.154,49.49,49.138,59.448,36.524,59.473
			 M51.191,36.949c-0.02-8.197-6.444-14.634-14.595-14.624c-8.169,0.01-14.606,6.467-14.579,14.624
			c0.027,8.161,6.497,14.579,14.661,14.536C44.758,51.45,51.211,44.985,51.191,36.949"/>
	</g>
	<g>
		<defs>
			<rect id="SVGID_5_" x="-7.199" y="-7.212" width="87.72" height="87.875"/>
		</defs>
		<clipPath id="SVGID_6_">
			<use xlink:href="#SVGID_5_"  overflow="visible"/>
		</clipPath>
		<path clip-path="url(#SVGID_6_)" fill="#FFFFFF" d="M60.141,8.199c3.004,0.048,5.28,2.417,5.197,5.409
			c-0.079,2.885-2.469,5.176-5.36,5.143c-2.909-0.035-5.315-2.554-5.216-5.463C54.862,10.368,57.203,8.154,60.141,8.199"/>
	</g>
</g>
</svg>
