<?xml version="1.0" encoding="utf-8"?>
<!-- Generator: Adobe Illustrator 16.0.0, SVG Export Plug-In . SVG Version: 6.00 Build 0)  -->
<!DOCTYPE svg PUBLIC "-//W3C//DTD SVG 1.1//EN" "http://www.w3.org/Graphics/SVG/1.1/DTD/svg11.dtd">
<svg version="1.1" id="Layer_1" xmlns="http://www.w3.org/2000/svg" xmlns:xlink="http://www.w3.org/1999/xlink" x="0px" y="0px"
	 width="40px" height="49.761px" viewBox="0 0 40 49.761" enable-background="new 0 0 40 49.761" xml:space="preserve">
<g>
	<path fill="#FFFFFF" d="M19.907,37.308c-1.389,0-2.5,1.111-2.5,2.5v7.453c0,1.39,1.111,2.5,2.5,2.5s2.5-1.11,2.5-2.5v-7.453
		C22.407,38.419,21.296,37.308,19.907,37.308z"/>
	<path fill="#FFFFFF" d="M37.315,7.446h-7.777c-0.046-0.139-0.046-0.278-0.093-0.417c-0.972-3.333-3.796-6.019-7.222-6.759
		c-5.648-1.296-10.695,2.222-11.945,7.176H2.5c-1.389,0-2.5,1.111-2.5,2.5s1.111,2.5,2.5,2.5h8.009
		c0.417,0.972,1.111,1.852,1.991,2.546c0,0,0,0,0.046,0c-4.306,0.324-7.408,4.259-6.759,8.565c1.065,7.269,3.519,13.38,6.713,17.13
		v-0.51c0-3.704,2.5-7.13,6.157-7.777c4.723-0.787,8.797,2.824,8.797,7.36v0.927c3.194-3.75,5.647-9.861,6.759-17.13
		c0.648-4.352-2.546-8.287-6.852-8.611c0,0,0.046,0,0.046-0.046c0.834-0.648,1.528-1.528,2.037-2.5H37.5c1.389,0,2.5-1.111,2.5-2.5
		C39.815,8.558,38.704,7.446,37.315,7.446z M19.907,14.9c-2.731,0-4.954-2.222-4.954-4.954s2.222-4.954,4.954-4.954
		s4.954,2.222,4.954,4.954S22.639,14.9,19.907,14.9z"/>
</g>
</svg>
