<?xml version="1.0" encoding="utf-8"?>
<!-- Generator: Adobe Illustrator 16.0.0, SVG Export Plug-In . SVG Version: 6.00 Build 0)  -->
<!DOCTYPE svg PUBLIC "-//W3C//DTD SVG 1.1//EN" "http://www.w3.org/Graphics/SVG/1.1/DTD/svg11.dtd">
<svg version="1.1" id="Layer_1" xmlns="http://www.w3.org/2000/svg" xmlns:xlink="http://www.w3.org/1999/xlink" x="0px" y="0px"
	 width="40px" height="66.872px" viewBox="0 0 40 66.872" enable-background="new 0 0 40 66.872" xml:space="preserve">
<g>
	<g>
		<circle fill="#FFFFFF" cx="21.06" cy="6.223" r="6.223"/>
		<path fill="#FFFFFF" d="M39.863,62.838L39.863,62.838L39.863,62.838c-0.068-0.342-5.813-16.342-5.813-16.342l-8.684-8.889
			c0,0,0-13.879,0-17.914s-7.385-6.771-8.273-6.154c-0.547,0.41-13.538,8.479-13.538,8.479L2.188,35.76c0,0.139,0,0.273,0,0.41
			c0,1.574,1.23,2.805,2.803,2.805c1.573,0,2.805-1.23,2.805-2.805l1.162-10.461l6.496-3.76v15.658l11.828,11.418l6.086,15.658l0,0
			c0.479,1.299,1.777,2.188,3.213,2.188c1.916,0,3.42-1.572,3.42-3.418C39.932,63.249,39.932,63.112,39.863,62.838z"/>
		<path fill="#FFFFFF" d="M0.82,60.583C0.342,61.198,0,61.95,0,62.838c0,1.916,1.574,3.42,3.42,3.42
			c1.229,0,2.256-0.615,2.871-1.572l10.53-13.607l3.214-7.18l-5.332-4.99l-3.967,8L0.82,60.583z"/>
		<path fill="#FFFFFF" d="M26.873,26.737c0,0-0.138,7.727,0,7.59c0.067-0.137,3.896,3.008,4.854,3.828
			c0.068,0.068,0.137,0.137,0.205,0.205l0,0l0,0c0.479,0.342,1.025,0.547,1.709,0.547c1.572,0,2.805-1.23,2.805-2.803
			c0-1.025-0.547-1.709-1.438-2.461L26.873,26.737z"/>
	</g>
</g>
</svg>
