<?xml version="1.0" encoding="utf-8"?>
<!-- Generator: Adobe Illustrator 16.0.0, SVG Export Plug-In . SVG Version: 6.00 Build 0)  -->
<!DOCTYPE svg PUBLIC "-//W3C//DTD SVG 1.1//EN" "http://www.w3.org/Graphics/SVG/1.1/DTD/svg11.dtd">
<svg version="1.1" id="Capa_1" xmlns="http://www.w3.org/2000/svg" xmlns:xlink="http://www.w3.org/1999/xlink" x="0px" y="0px"
	 width="34.353px" height="26.869px" viewBox="0 0 34.353 26.869" enable-background="new 0 0 34.353 26.869" xml:space="preserve">
<g>
	<defs>
		<rect id="SVGID_1_" y="0" width="34.353" height="26.869"/>
	</defs>
	<clipPath id="SVGID_2_">
		<use xlink:href="#SVGID_1_"  overflow="visible"/>
	</clipPath>
	<path clip-path="url(#SVGID_2_)" fill="#FFFFFF" d="M30.836,6.688c0.016,0.293,0.021,0.583,0.021,0.881
		c0,8.961-7.089,19.298-20.055,19.298c-3.977,0-7.681-1.117-10.801-3.044c0.551,0.061,1.114,0.095,1.68,0.095
		c3.3,0,6.343-1.086,8.757-2.91c-3.089-0.054-5.69-2.007-6.586-4.707c0.432,0.082,0.869,0.12,1.329,0.12
		c0.643,0,1.26-0.081,1.855-0.236c-3.223-0.624-5.656-3.365-5.656-6.656V9.442c0.954,0.514,2.037,0.813,3.193,0.848
		C2.682,9.076,1.438,7,1.438,4.646c0-1.24,0.35-2.407,0.957-3.412c3.47,4.111,8.667,6.811,14.527,7.095
		c-0.121-0.493-0.185-1.017-0.185-1.553C16.736,3.03,19.892,0,23.781,0c2.031,0,3.864,0.821,5.145,2.136
		c1.607-0.305,3.115-0.867,4.478-1.648c-0.525,1.589-1.646,2.918-3.096,3.757c1.425-0.168,2.783-0.527,4.046-1.072
		C33.408,4.538,32.211,5.732,30.836,6.688"/>
</g>
</svg>
