<?xml version="1.0" encoding="utf-8"?>
<!-- Generator: Adobe Illustrator 16.0.0, SVG Export Plug-In . SVG Version: 6.00 Build 0)  -->
<!DOCTYPE svg PUBLIC "-//W3C//DTD SVG 1.1//EN" "http://www.w3.org/Graphics/SVG/1.1/DTD/svg11.dtd">
<svg version="1.1" id="Capa_1" xmlns="http://www.w3.org/2000/svg" xmlns:xlink="http://www.w3.org/1999/xlink" x="0px" y="0px"
	 width="40.197px" height="28.272px" viewBox="0 0 40.197 28.272" enable-background="new 0 0 40.197 28.272" xml:space="preserve">
<g>
	<defs>
		<rect id="SVGID_1_" y="0" width="40.197" height="28.272"/>
	</defs>
	<clipPath id="SVGID_2_">
		<use xlink:href="#SVGID_1_"  overflow="visible"/>
	</clipPath>
	<path clip-path="url(#SVGID_2_)" fill="#FFFFFF" d="M39.796,6.099c0,0-0.394-2.77-1.598-3.99C36.67,0.508,34.956,0.5,34.17,0.406
		C28.545,0,20.107,0,20.107,0H20.09c0,0-8.438,0-14.063,0.406C5.241,0.5,3.529,0.508,2,2.109c-1.206,1.22-1.598,3.99-1.598,3.99
		S0,9.353,0,12.605v3.049c0,3.253,0.402,6.506,0.402,6.506S0.794,24.931,2,26.15c1.529,1.601,3.537,1.551,4.432,1.718
		c3.216,0.31,13.667,0.404,13.667,0.404s8.446-0.013,14.071-0.419c0.786-0.094,2.5-0.103,4.028-1.703
		c1.204-1.22,1.598-3.99,1.598-3.99s0.402-3.253,0.402-6.506v-3.049C40.198,9.353,39.796,6.099,39.796,6.099 M15.949,19.351
		L15.947,8.056l10.862,5.666L15.949,19.351z"/>
</g>
</svg>
